<svg width="243" height="19" viewBox="0 0 243 19" fill="none" xmlns="http://www.w3.org/2000/svg">
<path d="M9.00943 10.6251L9.50902 7.36758H6.38326V5.25323C6.38326 4.3619 6.81978 3.49347 8.21986 3.49347H9.64077V0.719781C9.64077 0.719781 8.3516 0.5 7.1184 0.5C4.54363 0.5 2.86171 2.05982 2.86171 4.88439V7.36758H0V10.6251H2.86171V18.5H6.38326V10.6251H9.00943Z" fill="white"/>
<path d="M43.4058 3.71362C42.8228 3.71362 42.3502 4.18624 42.3502 4.76874C42.3502 5.35175 42.8228 5.82436 43.4058 5.82436C43.9883 5.82436 44.4609 5.35175 44.4609 4.76874C44.4609 4.18624 43.9883 3.71362 43.4058 3.71362Z" fill="white"/>
<path d="M38.714 12.3392C37.1482 12.3392 35.8743 11.0654 35.8743 9.49999C35.8743 7.93411 37.1482 6.66025 38.714 6.66025C40.2794 6.66025 41.5533 7.93411 41.5533 9.49999C41.5533 11.0654 40.2794 12.3392 38.714 12.3392ZM38.714 5.06689C36.2696 5.06689 34.2809 7.05553 34.2809 9.49999C34.2809 11.9439 36.2696 13.9326 38.714 13.9326C41.158 13.9326 43.1466 11.9439 43.1466 9.49999C43.1466 7.05553 41.158 5.06689 38.714 5.06689Z" fill="white"/>
<path d="M35.0471 2.19357C32.9994 2.19357 31.3338 3.85917 31.3338 5.90682V13.0932C31.3338 15.1408 32.9994 16.8064 35.0471 16.8064H42.2334C44.2811 16.8064 45.9472 15.1408 45.9472 13.0932V5.90682C45.9472 3.85917 44.2811 2.19357 42.2334 2.19357H35.0471ZM42.2334 18.5H35.0471C32.0654 18.5 29.6407 16.0744 29.6407 13.0932V5.90682C29.6407 2.92513 32.0654 0.5 35.0471 0.5H42.2334C45.2146 0.5 47.6402 2.92513 47.6402 5.90682V13.0932C47.6402 16.0744 45.2146 18.5 42.2334 18.5Z" fill="white"/>
<path d="M89.4202 2.65762C88.7253 2.97202 87.9576 3.16229 87.2082 3.28795C87.5638 3.22842 88.0863 2.58436 88.2959 2.32389C88.6154 1.92707 88.8804 1.47428 89.0295 0.985381C89.0488 0.947225 89.0636 0.899404 89.0249 0.870406C88.9771 0.851583 88.9461 0.861255 88.9079 0.880079C88.071 1.32828 87.2062 1.65336 86.2854 1.88382C86.2091 1.90265 86.1521 1.88382 86.1042 1.83549C86.0284 1.74951 85.9562 1.66812 85.8753 1.60147C85.4882 1.27232 85.073 1.01387 84.605 0.823092C83.9904 0.572791 83.3189 0.46647 82.657 0.509204C82.0124 0.55143 81.3801 0.732542 80.8088 1.03117C80.2359 1.33031 79.7246 1.74697 79.3171 2.2491C78.8964 2.76903 78.5861 3.38207 78.4268 4.03275C78.2742 4.66053 78.2864 5.2812 78.38 5.9156C78.3943 6.02091 78.3846 6.03515 78.2895 6.02091C74.6881 5.4847 71.7028 4.19656 69.2791 1.43461C69.1738 1.31454 69.1169 1.31454 69.0309 1.44376C67.9701 3.03357 68.4845 5.58695 69.8092 6.84202C69.9863 7.0099 70.1674 7.17677 70.3633 7.32939C70.2915 7.34414 69.4104 7.24901 68.6244 6.84202C68.5196 6.77537 68.4662 6.81404 68.457 6.93308C68.4474 7.10504 68.4621 7.26326 68.4855 7.44946C68.689 9.06064 69.8052 10.5507 71.3334 11.1327C71.5146 11.2091 71.7155 11.2757 71.9109 11.3093C71.5629 11.3856 71.2042 11.44 70.2056 11.3617C70.0814 11.3383 70.0341 11.4003 70.0814 11.5199C70.8323 13.5645 72.4511 14.1735 73.6645 14.5199C73.8268 14.5484 73.9896 14.5484 74.1524 14.5866C74.1422 14.6013 74.1325 14.6013 74.1229 14.6156C73.7209 15.2286 72.326 15.685 71.6763 15.9119C70.495 16.325 69.2084 16.5107 67.96 16.3875C67.7606 16.358 67.7183 16.3606 67.6644 16.3875C67.6095 16.4216 67.6568 16.4694 67.7214 16.5213C67.9747 16.6887 68.2327 16.8368 68.4957 16.9802C69.2883 17.4004 70.115 17.7352 70.9799 17.9738C75.4441 19.2065 80.4725 18.3004 83.8246 14.9702C86.4568 12.3547 87.3797 8.74776 87.3797 5.13671C87.3797 4.99528 87.5465 4.91744 87.6452 4.84266C88.3305 4.32832 88.883 3.71224 89.3938 3.02493C89.5087 2.87027 89.5097 2.73291 89.5097 2.67644C89.5097 2.66677 89.5097 2.65762 89.5097 2.65762C89.5097 2.59962 89.5087 2.61743 89.4202 2.65762Z" fill="white"/>
<path fill-rule="evenodd" clip-rule="evenodd" d="M115.338 12.2417C115.323 12.2936 115.309 12.3368 115.298 12.3806C114.636 14.9706 114.563 15.546 113.884 16.7497C113.559 17.321 113.194 17.8628 112.791 18.3817C112.745 18.4402 112.703 18.5155 112.611 18.4972C112.512 18.4758 112.504 18.3863 112.493 18.3064C112.384 17.5194 112.325 16.7298 112.35 15.9357C112.385 14.9004 112.513 14.5453 113.847 8.93284C113.867 8.84737 113.845 8.77666 113.817 8.69882C113.497 7.83752 113.434 6.96299 113.713 6.07676C114.317 4.16236 116.487 4.01584 116.867 5.59549C117.1 6.57227 116.482 7.85023 116.007 9.7397C115.614 11.299 117.449 12.407 119.018 11.269C120.464 10.22 121.026 7.70423 120.919 5.92159C120.709 2.36752 116.812 1.59932 114.338 2.74399C111.504 4.05451 110.859 7.56839 112.139 9.17398C112.301 9.37849 112.426 9.50314 112.373 9.71071C112.29 10.0317 112.218 10.3558 112.129 10.6758C112.063 10.9134 111.864 11.0004 111.623 10.9022C111.151 10.7114 110.758 10.4112 110.439 10.0154C109.352 8.66982 109.042 6.00706 110.478 3.75384C112.071 1.25642 115.033 0.246569 117.736 0.553341C120.966 0.920144 123.007 3.12707 123.389 5.63008C123.563 6.77069 123.438 9.5825 121.838 11.5702C119.995 13.8539 117.01 14.005 115.633 12.6034C115.527 12.4961 115.442 12.3699 115.338 12.2417Z" fill="white"/>
<path d="M158.849 7.78289C158.702 7.79686 158.554 7.80434 158.406 7.80534C156.785 7.80534 155.274 6.98832 154.386 5.6321V13.0312C154.386 16.0519 151.937 18.5 148.917 18.5C145.896 18.5 143.448 16.0519 143.448 13.0312C143.448 10.011 145.896 7.56293 148.917 7.56293C149.031 7.56293 149.143 7.57291 149.255 7.57989V10.2749C149.143 10.2614 149.032 10.241 148.917 10.241C147.375 10.241 146.126 11.4909 146.126 13.0317C146.126 14.5735 147.375 15.823 148.917 15.823C150.459 15.823 151.82 14.6084 151.82 13.0666L151.848 0.5H154.426C154.669 2.81191 156.533 4.61805 158.852 4.78764V7.78289" fill="white"/>
<path d="M183.932 15.3997L184.237 15.5813C185.355 16.2478 186.628 16.6003 187.917 16.6003C191.893 16.6003 195.127 13.3662 195.127 9.39036C195.127 5.41501 191.893 2.1804 187.917 2.1804C183.942 2.1804 180.707 5.41501 180.707 9.39036C180.707 10.7029 181.072 11.9957 181.762 13.1286L181.949 13.4354L181.228 16.1241L183.932 15.3997ZM178.852 18.5L180.142 13.6857C179.411 12.367 179.027 10.8902 179.027 9.39036C179.027 4.48858 183.015 0.5 187.917 0.5C192.819 0.5 196.808 4.48858 196.808 9.39036C196.808 14.2927 192.819 18.2812 187.917 18.2812C186.446 18.2812 184.992 17.9093 183.691 17.2042L178.852 18.5Z" fill="white"/>
<path fill-rule="evenodd" clip-rule="evenodd" d="M191.224 10.6271C190.858 10.4079 190.382 10.1637 189.951 10.3397C189.621 10.4755 189.409 10.9934 189.195 11.2575C189.085 11.3933 188.954 11.4142 188.785 11.3465C187.543 10.8515 186.592 10.0228 185.907 8.88112C185.791 8.70357 185.812 8.56367 185.951 8.39934C186.159 8.15565 186.418 7.87889 186.474 7.55024C186.53 7.2221 186.376 6.8385 186.24 6.54546C186.067 6.17204 185.873 5.63939 185.499 5.42775C185.155 5.23341 184.701 5.34227 184.395 5.59156C183.866 6.02298 183.611 6.69759 183.618 7.3671C183.621 7.55737 183.644 7.74713 183.689 7.93028C183.795 8.37136 183.999 8.78395 184.229 9.17518C184.402 9.47076 184.59 9.7577 184.793 10.0334C185.457 10.9355 186.283 11.7194 187.24 12.3055C187.718 12.598 188.232 12.855 188.765 13.031C189.363 13.2284 189.896 13.4339 190.541 13.3113C191.217 13.1831 191.884 12.7649 192.152 12.1137C192.231 11.9204 192.271 11.7057 192.227 11.5022C192.135 11.0809 191.565 10.8306 191.224 10.6271Z" fill="white"/>
<path d="M234.037 10.0035L227.566 13.205C227.312 13.3416 226.45 13.1578 226.45 12.8695V6.29853C226.45 6.00671 227.319 5.8229 227.573 5.96738L233.767 9.33693C234.027 9.48498 234.299 9.86121 234.037 10.0035ZM242.522 6.14262C242.522 3.02627 239.996 0.5 236.879 0.5H222.45C219.333 0.5 216.808 3.02627 216.808 6.14262V12.8574C216.808 15.9744 219.333 18.5 222.45 18.5H236.879C239.996 18.5 242.522 15.9744 242.522 12.8574V6.14262Z" fill="white"/>
</svg>
